<?xml version="1.0" encoding="UTF-8"?>
<svg id="Camada_1" data-name="Camada 1" xmlns="http://www.w3.org/2000/svg" viewBox="0 0 1080 1080">
  <defs>
    <style>
      .cls-1 {
        fill: #5e4395;
      }
    </style>
  </defs>
  <path class="cls-1" d="M529.73,209.65l16.48-.33c233.29,2.6,448.21,213.2,367.18,454.78-10.29,30.68-26.36,51.84-39.61,79.44-6.03,12.55-8,33.92,7.53,40.77,7.18,3.17,21.3-.76,18.37,13.65-3.01,14.8-27.01,6.8-35.21.24-38.62-30.9-2.59-71.69,12.97-102.16,75.28-147.39,15.12-312.32-117.72-400.12-147.08-97.21-340.22-85.39-475.53,26.33-8.98,4.39-17.89-6.42-12.88-14.84,3.77-6.34,27.44-22.41,34.76-27.22,65.79-43.29,144.87-67.28,223.67-70.52Z"/>
  <path class="cls-1" d="M251.38,659.06c-8.61-.39-15.33,1.86-21.02-6.04-1.18-1.64-1.25-4.3-2.51-5.36-4.45-3.73-7.83.1-13.48-10.14-15.98-28.95-16.78-107.61-1.8-137,2.57-5.03,4.82-7.71,10.33-9.37,1.4-.42,4.39-.19,4.84-.56.26-.21,1.09-4.52,2.07-6.3,4.42-8.1,12.55-7.57,20.59-7.45,30.56-106.79,131.89-171.93,237.05-190.45,133.8-23.57,301.45,39.32,351.2,173.58,1.54,4.15,5.37,20.08,6.65,21.88.78,1.1,8.64,2.9,11.85,5.86,11.88,10.97,12.97,19.68,15.07,35.11,3.26,23.99,4.96,98.08-5.22,118.46-1.9,3.81-6.47,12.92-8.58,16.01-4.72,6.92-11.71,6.61-19.05,8.5-24.28,70.38-79.92,113.38-150.59,131.79-103.01,26.83-279.6,23.82-369.71-38.47-34.56-23.89-58.13-59.04-67.68-100.07ZM525.79,291.3c-95.5,5.52-201.53,57.59-247.92,143.67-4.47,8.29-17.9,36.45-18.49,44.55-.33,4.59,2.54,15.79,2.91,21.54,3,47.69,1.94,95.99-.99,143.62-.89,14.44-1.03,15.23,4.18,29.3,22.18,59.93,67.82,90.63,126.93,109.21,95.1,29.89,268.86,31.92,356.26-20.13,91.83-54.68,107.19-167.77,89.91-265.62-24.56-139.14-182.45-213.67-312.79-206.13ZM251.27,487.01c-19.65-5.89-11.53,11.53-10.62,22.91,3.04,38.32,2.87,78.79,0,117.06-.27,3.61-3.71,20.36-1.74,21.92,4.04,1.52,8.76,1.88,12.64-.37,1.81-34.67,3.11-69.4,2.93-104.22-2.28-18.93.1-38.37-3.2-57.3ZM842.83,656.01c16.27-2.91,19.01-31.16,20.54-44.88,2.68-24,4.71-92.69-7.56-112.23-1.93-3.07-4.5-5.32-7.58-7.18.63,13.8,3.44,27.86,4.42,41.82,1.89,26.7,1.3,54.87-2.1,81.51-1.76,13.82-5.21,27.31-7.73,40.96ZM229.82,500.58c-6.62-.8-7.15.02-9.61,5.62-12.78,29.02-12.23,96.48,1.28,125.2,3.45,7.33,8.04,9.02,9.21-.59,1.24-10.2.3-21.15,2.12-31.33v-64.03s-3-34.87-3-34.87Z"/>
  <path class="cls-1" d="M249.22,782.15c2.29-.52,4.75-.47,6.9.57,140.38,105.45,341.05,120.48,499.69,47.49,9.6-2.24,16.94,8.99,10.71,16.62-3.13,3.82-26.36,12.52-32.4,14.83-143.73,54.87-317.07,42.53-449.85-35.27-7.45-4.36-39.36-23.81-41.88-29.93-2.29-5.56.96-12.97,6.84-14.3Z"/>
  <path class="cls-1" d="M166.51,673.38c-5.58,5.86-13.97,4.12-17.17-3.31-8.19-19.03-14.86-62.35-15.94-83.43-1.34-26.26.18-84.72,10.79-108.23,5.14-11.39,19.34-7.32,19.76,2,.29,6.52-5.26,22.87-6.64,30.8-7.44,42.81-5.14,84.69,4.3,126.92,1.73,7.73,8.24,24.62,7.14,31.12-.23,1.34-1.31,3.16-2.25,4.14Z"/>
  <path class="cls-1" d="M897.91,184.76l19.52,47.88c3.8,7.21,8.13,10.64,15.25,14.27,14.56,7.41,31.33,11.57,45.93,19.02.51,1.86-2.01,1.99-3.28,2.58-17.3,8.06-49.25,15.64-58.21,32.35-7.61,14.21-12.33,32.41-19.21,47.21-2.09-1.37-3.08-4.91-4.09-7.21-5.51-12.61-14.36-42.06-23.92-49.87-13.09-10.71-38.66-15.29-53.66-24.09-.43-2.04.82-1.36,1.98-1.91,13.61-6.44,44.25-15.46,53.65-25.11,10.06-10.33,16.84-39.62,23.99-53.73.53-1.04-.51-1.85,2.04-1.39ZM954.99,267.39c-14.12-10.04-32.98-10.42-43.12-26.23-6.02-9.4-10.06-23.21-13.96-33.77-1.39.11-1.55,1.44-1.99,2.42-4.43,9.72-6.96,22.28-12.91,31.36-8.75,13.34-28.79,18.88-43.14,24.27-.46,2.26.25,1.57,1.26,2.2,7.61,4.79,20.3,7.27,28.92,12.38,16.84,9.96,19.59,28.16,27.38,44.45,7.15-14.71,9.81-33.83,24.77-43.12,9.45-5.86,22.57-9.27,32.79-13.96Z"/>
  <path class="cls-1" d="M154.84,303.12c77.39-4.22,82.05,111.91,7.57,116.76-76.4,4.97-83.64-112.61-7.57-116.76ZM155.86,311.94c-68.74,3.06-55.75,112.54,13.02,97.68,57.76-12.49,47.08-100.35-13.02-97.68Z"/>
  <path class="cls-1" d="M171.14,751.1c-26.59-25.26,12-68.73,39.54-42,26.98,26.19-12.4,67.78-39.54,42ZM188.25,710.36c-18.05,2.58-23.05,28.49-6.97,36.99,17.68,9.35,35.16-9.13,26.73-26.73-3.34-6.99-12.17-11.35-19.76-10.26Z"/>
  <path class="cls-1" d="M801.23,793.98c21.24-4.38,30.89,21.96,15.36,32.08-13.42,8.75-29.76-2.24-27.79-17.95.69-5.52,6.96-13,12.44-14.12ZM804.18,802.8c-8.52,1.88-9.1,16.32,1.74,16.62,14.06.39,10.63-19.35-1.74-16.62Z"/>
  <path class="cls-1" d="M936.06,363.05c17.75-2.56,22.35,24.02,5.42,27.1-19.26,3.5-22.97-24.57-5.42-27.1ZM941.96,380.3c3.91-3.91-1.97-11.68-6.62-7.11s2.37,11.37,6.62,7.11Z"/>
  <path class="cls-1" d="M538.58,421.17l61.74.65,31.44,2.02c85.64,5.23,165.4,30.42,170.76,129.32,5.46,100.68-33.06,157.12-132.69,175.34-73.27,13.41-213,14.25-281.27-16.24-64.65-28.88-79.8-90.93-76.08-157.08,7.39-131.32,122.83-131.07,226.1-134.01ZM522.84,432.97c-51.41,1.37-133.72,4.43-170.53,44.95-40.11,44.16-36.77,151.45,1.97,195.81,47.31,54.17,176.38,53.21,243.06,50.17,99.32-4.52,187.16-21.68,193.33-139.23,4.17-79.46-24.83-125.76-104.08-141.87-50.19-10.2-112.42-11.2-163.74-9.84Z"/>
  <path class="cls-1" d="M437.25,512.6c4.03-.28,8.68,1.14,12.36,2.85,32.71,15.19,28.39,91.56-7.74,95.31-46.12,4.79-48.64-95.07-4.62-98.16Z"/>
  <path class="cls-1" d="M662.51,513.59c51.37-8.79,50.92,103.91,1.82,97.08-37.95-5.29-37.72-90.93-1.82-97.08Z"/>
  <path class="cls-1" d="M493.25,628.66c6.08-1.36,12.24,6.36,17.68,9.45,24.33,13.82,63.3,13.12,87.55-.62,6.07-3.44,13.17-12.41,19.98-7.52,9.66,6.93-8.52,24.3-14.27,28.98-30.71,25-83.28,21.81-108.68-9.35-3.9-4.78-12.59-18.62-2.27-20.93Z"/>
</svg>